HIERARCHY
ROOT hip
{
	OFFSET 0.000000 0.000000 0.000000 
	CHANNELS 6 Xposition Yposition Zposition Xrotation Zrotation Yrotation
	JOINT abdomen
	{
		OFFSET 0.000000 3.402643 0.000000 
		CHANNELS 3 Xrotation Zrotation Yrotation
		JOINT chest
		{
			OFFSET 0.000000 8.438565 -0.680529 
			CHANNELS 3 Xrotation Zrotation Yrotation
			JOINT neck
			{
				OFFSET 0.000000 10.207942 -0.272212 
				CHANNELS 3 Xrotation Zrotation Yrotation
				JOINT head
				{
					OFFSET 0.000000 3.130431 0.000000 
					CHANNELS 3 Xrotation Zrotation Yrotation
					End Site
					{
						OFFSET 0.000000 3.130435 0.000000 
					}
				}
			}
			JOINT lCollar
			{
				OFFSET 3.470700 6.669187 -0.816635 
				CHANNELS 3 Yrotation Zrotation Xrotation
				JOINT lShldr
				{
					OFFSET 3.198488 0.000000 0.000000 
					CHANNELS 3 Zrotation Yrotation Xrotation
					JOINT lForeArm
					{
						OFFSET 10.139888 0.000000 0.000000 
						CHANNELS 3 Yrotation Zrotation Xrotation
						JOINT lHand
						{
							OFFSET 8.370511 0.000000 0.000000 
							CHANNELS 3 Zrotation Yrotation Xrotation
							End Site
							{
								OFFSET 4.083176 0.000000 0.000000 
							}
						}
					}
				}
			}
			JOINT rCollar
			{
				OFFSET -3.470700 6.669187 -0.816635 
				CHANNELS 3 Yrotation Zrotation Xrotation
				JOINT rShldr
				{
					OFFSET -3.198488 0.000000 0.000000 
					CHANNELS 3 Zrotation Yrotation Xrotation
					JOINT rForeArm
					{
						OFFSET -10.139888 0.000000 0.000000 
						CHANNELS 3 Yrotation Zrotation Xrotation
						JOINT rHand
						{
							OFFSET -8.370511 0.000000 0.000000 
							CHANNELS 3 Zrotation Yrotation Xrotation
							End Site
							{
								OFFSET -4.083176 0.000000 0.000000 
							}
						}
					}
				}
			}
		}
	}
	JOINT lThigh
	{
		OFFSET 5.308129 -1.633274 1.361059 
		CHANNELS 3 Xrotation Zrotation Yrotation
		JOINT lShin
		{
			OFFSET -2.041588 -20.007561 0.000000 
			CHANNELS 3 Xrotation Zrotation Yrotation
			JOINT lFoot
			{
				OFFSET 0.000000 -19.190928 -1.224953 
				CHANNELS 3 Xrotation Yrotation Zrotation
				End Site
				{
					OFFSET 0.000000 -2.449906 4.627600 
				}
			}
		}
	}
	JOINT rThigh
	{
		OFFSET -5.308129 -1.633274 1.361059 
		CHANNELS 3 Xrotation Zrotation Yrotation
		JOINT rShin
		{
			OFFSET 2.041588 -20.007561 0.000000 
			CHANNELS 3 Xrotation Zrotation Yrotation
			JOINT rFoot
			{
				OFFSET 0.000000 -19.190928 -1.224953 
				CHANNELS 3 Xrotation Yrotation Zrotation
				End Site
				{
					OFFSET 0.000000 -2.449906 4.627600 
				}
			}
		}
	}
}
MOTION
Frames: 8
Frame Time: 0.033333
-16.772795 46.460075 -0.050940 1.446591 2.691401 -3.088950 0.000000 0.000000 0.000000 -0.059159 -1.044871 0.566490 4.401061 0.868988 1.074391 -13.136646 -0.097638 1.103514 0.091101 1.709932 0.546922 -72.940895 22.305676 -75.972061 -86.363533 -13.382433 -62.842113 38.040546 6.256521 -2.508600 2.562058 13.913822 0.390435 32.572819 -27.738146 -104.099030 110.013580 35.169445 -27.819111 -49.332596 -11.094734 -0.086600 -12.533551 -1.025248 4.362113 44.360298 -2.456135 19.975935 -30.646242 2.669997 -9.707631 -15.192968 -6.366160 -2.752583 46.236206 -0.332035 1.898376 -33.334660 -0.584278 2.097656 
-16.702637 45.413174 -0.352138 1.504887 2.283854 -1.934781 0.000000 0.000000 0.000000 0.861589 -0.683590 -0.185650 3.274733 1.122816 1.162460 -11.970508 -0.224480 1.943344 -0.586565 0.425481 1.376917 -70.279861 15.541537 -69.251198 -82.782753 -10.955418 -48.090332 29.376144 2.669393 -3.697408 2.244873 13.777151 1.154910 27.537542 -19.006685 -92.919960 110.443481 30.646990 -28.143229 -49.413338 -12.542674 0.600010 -15.336423 -2.245603 2.744150 49.534180 -0.651239 23.631157 -33.240570 3.802506 -12.590188 -18.371830 -4.451654 -0.911747 52.496071 -2.002048 -3.950341 -35.460327 -1.823997 5.644491 
-16.508335 45.430023 -0.510014 0.609802 2.040011 -1.797822 0.000000 0.000000 0.000000 1.422086 -0.585926 0.361309 4.394783 1.581270 1.778283 -13.940117 0.136620 2.177752 -1.408550 -0.251294 1.874455 -69.603928 9.892589 -62.960911 -84.594810 -10.589811 -47.663651 27.062208 3.713039 -3.452313 3.277235 12.996463 1.629451 29.626461 -11.304967 -81.232674 106.208488 24.973980 -25.250921 -54.589382 -14.152234 1.849860 -14.987667 -2.216155 3.011591 49.781109 -0.845612 23.686594 -33.013542 3.613555 -12.131719 -17.733725 -4.824197 -0.973626 52.773792 -1.884740 -1.451630 -35.123585 -1.488237 4.639023 
-16.330847 46.386013 -0.767521 0.919149 2.684445 -1.642026 0.000000 0.000000 0.000000 1.329857 -1.171551 1.347774 3.710334 1.063758 2.070681 -11.794740 1.337715 0.928165 -1.726139 -0.737179 1.766997 -69.691063 4.120423 -54.473343 -85.047989 -9.422051 -53.253956 22.024557 5.649817 -3.074542 4.821623 12.375910 1.522971 34.248447 -5.785308 -71.890564 101.879738 21.328569 -33.372307 -61.465084 -12.609533 1.869676 -13.632976 -2.216436 3.822968 44.762760 -2.534827 22.384579 -30.271610 2.547572 -9.443478 -18.777512 -6.864819 -2.541495 52.270378 -0.751845 3.310400 -29.334307 -0.424050 1.797064 
-16.338936 47.665226 -0.867906 1.378640 2.255845 -0.204919 0.000000 0.000000 0.000000 0.790104 -0.868900 1.347797 3.087178 0.761436 1.562751 -8.569208 0.839829 0.341903 -2.772580 -0.510748 1.268163 -69.582474 0.649075 -45.530495 -83.360947 -7.710749 -49.723801 20.898283 4.071580 -3.385348 5.080287 12.499511 0.984402 39.005161 -2.593445 -67.371452 99.996582 19.237366 -44.547844 -64.144249 -17.083605 4.894465 -12.471057 -1.259206 3.550076 40.026802 -2.925420 19.169165 -24.998308 1.597469 -7.184433 -20.631554 -8.045625 -5.752187 52.912712 1.679620 3.432331 -19.082006 -0.035522 0.079637 
-16.446320 48.880196 -0.802392 1.785161 1.445054 1.084379 0.000000 0.000000 0.000000 -0.036719 -0.478458 0.888641 2.638854 0.634654 1.074369 -4.882530 0.048827 0.332039 -3.409570 -0.929839 0.526497 -68.223816 -1.251867 -39.136456 -82.208290 -6.391849 -42.980553 21.319561 3.639915 -3.450632 5.058703 14.043567 0.117979 41.219830 -1.725690 -60.711891 97.334686 16.596411 -57.524815 -65.554207 -18.704834 6.164003 -11.883571 0.019746 3.491159 36.791553 -3.031291 16.660837 -18.772234 0.957915 -5.850240 -19.343447 -7.459764 -7.655491 48.346264 3.495724 -2.816464 -12.815957 -0.205111 1.727418 
-16.556877 49.845478 -0.607706 2.191617 0.683185 1.982630 0.000000 0.000000 0.000000 -1.182789 -0.146480 0.449217 2.525997 0.341736 1.084023 -0.977431 -0.087886 0.566406 -3.646841 -0.465765 -0.506769 -67.713974 -2.487178 -36.357868 -81.363792 -5.666791 -35.783943 18.542416 2.144394 -3.678679 5.061626 14.350372 -0.996085 44.976261 -0.245766 -57.458508 94.968498 14.928977 -65.198891 -65.298050 -19.489752 6.634098 -10.769088 0.819910 3.077437 33.039017 -2.723508 15.489289 -13.951050 0.657135 -5.261854 -16.785301 -6.522794 -7.851733 40.521919 4.666672 -5.750157 -10.037297 -0.168470 1.798565 
-16.709061 50.497135 -0.468524 2.901063 0.019520 1.972660 0.000000 0.000000 0.000000 -2.625462 0.156243 0.546900 2.991997 0.107358 1.982436 3.072914 -1.239807 1.504188 -3.288178 0.142181 -1.793934 -66.527603 -3.452139 -35.651066 -80.416145 -5.400437 -32.924278 12.812435 0.726083 -3.760876 5.498514 13.474403 -2.333262 49.107899 -0.242890 -53.462971 92.210846 13.315565 -64.074707 -62.811218 -20.128141 6.524595 -10.163321 1.366770 2.401090 29.998608 -2.056890 15.243331 -10.597377 0.508850 -5.390628 -14.509384 -5.204339 -6.503041 31.429703 4.739805 -7.235986 -8.430029 -0.141097 1.535218 
